<mxfile host="Electron" modified="2023-10-11T07:22:03.735Z" agent="Mozilla/5.0 (Windows NT 10.0; Win64; x64) AppleWebKit/537.36 (KHTML, like Gecko) draw.io/21.6.5 Chrome/114.0.5735.243 Electron/25.3.1 Safari/537.36" etag="wsn5y9AsyeyUB-LwBd9u" version="21.6.5" type="device">
  <diagram name="Page-1" id="y4mWA-HeYzaWvu7CdzqG">
    <mxGraphModel dx="1036" dy="606" grid="1" gridSize="5" guides="1" tooltips="1" connect="1" arrows="1" fold="1" page="1" pageScale="1" pageWidth="827" pageHeight="1169" math="0" shadow="0">
      <root>
        <mxCell id="0" />
        <mxCell id="1" parent="0" />
        <mxCell id="vAxRYSpbGjlzIPx5cKzN-1" value="&lt;font style=&quot;font-size: 15px;&quot;&gt;Order&lt;/font&gt;" style="shape=umlFrame;whiteSpace=wrap;html=1;pointerEvents=0;width=100;height=65;" parent="1" vertex="1">
          <mxGeometry x="110" y="70" width="630" height="635" as="geometry" />
        </mxCell>
        <mxCell id="dHtXZSxDoZGKjRGXaI3S-2" style="edgeStyle=orthogonalEdgeStyle;rounded=0;orthogonalLoop=1;jettySize=auto;html=1;exitX=0.5;exitY=1;exitDx=0;exitDy=0;entryX=0.5;entryY=0;entryDx=0;entryDy=0;entryPerimeter=0;" parent="1" edge="1">
          <mxGeometry relative="1" as="geometry">
            <mxPoint x="401" y="135" as="sourcePoint" />
            <mxPoint x="401.0000000000002" y="195" as="targetPoint" />
          </mxGeometry>
        </mxCell>
        <mxCell id="dHtXZSxDoZGKjRGXaI3S-29" value="Order &lt;br&gt;Recevied" style="text;html=1;align=center;verticalAlign=middle;resizable=0;points=[];autosize=1;strokeColor=none;fillColor=none;" parent="1" vertex="1">
          <mxGeometry x="406" y="142" width="70" height="45" as="geometry" />
        </mxCell>
        <mxCell id="Qb3NqtEUnzygsK-i9NV1-1" value="" style="ellipse;fillColor=strokeColor;html=1;" parent="1" vertex="1">
          <mxGeometry x="386" y="105" width="30" height="30" as="geometry" />
        </mxCell>
        <mxCell id="Qb3NqtEUnzygsK-i9NV1-6" value="Unprocessed" style="rounded=1;whiteSpace=wrap;html=1;" parent="1" vertex="1">
          <mxGeometry x="345.5" y="195" width="111" height="45" as="geometry" />
        </mxCell>
        <mxCell id="Qb3NqtEUnzygsK-i9NV1-7" value="" style="endArrow=classic;html=1;rounded=0;exitX=1;exitY=1;exitDx=0;exitDy=0;entryX=0.5;entryY=0;entryDx=0;entryDy=0;" parent="1" source="Qb3NqtEUnzygsK-i9NV1-6" target="Qb3NqtEUnzygsK-i9NV1-9" edge="1">
          <mxGeometry width="50" height="50" relative="1" as="geometry">
            <mxPoint x="400" y="350" as="sourcePoint" />
            <mxPoint x="450" y="300" as="targetPoint" />
          </mxGeometry>
        </mxCell>
        <mxCell id="Qb3NqtEUnzygsK-i9NV1-9" value="Accepted" style="rounded=1;whiteSpace=wrap;html=1;" parent="1" vertex="1">
          <mxGeometry x="485" y="310" width="111" height="45" as="geometry" />
        </mxCell>
        <mxCell id="Qb3NqtEUnzygsK-i9NV1-10" value="Rejected" style="rounded=1;whiteSpace=wrap;html=1;" parent="1" vertex="1">
          <mxGeometry x="215" y="310" width="111" height="45" as="geometry" />
        </mxCell>
        <mxCell id="Qb3NqtEUnzygsK-i9NV1-11" value="" style="endArrow=classic;html=1;rounded=0;entryX=0.5;entryY=0;entryDx=0;entryDy=0;exitX=0;exitY=1;exitDx=0;exitDy=0;" parent="1" source="Qb3NqtEUnzygsK-i9NV1-6" target="Qb3NqtEUnzygsK-i9NV1-10" edge="1">
          <mxGeometry width="50" height="50" relative="1" as="geometry">
            <mxPoint x="400" y="350" as="sourcePoint" />
            <mxPoint x="450" y="300" as="targetPoint" />
          </mxGeometry>
        </mxCell>
        <mxCell id="Qb3NqtEUnzygsK-i9NV1-18" style="edgeStyle=orthogonalEdgeStyle;rounded=0;orthogonalLoop=1;jettySize=auto;html=1;exitX=0.5;exitY=1;exitDx=0;exitDy=0;entryX=1;entryY=0.5;entryDx=0;entryDy=0;" parent="1" source="Qb3NqtEUnzygsK-i9NV1-12" target="Qb3NqtEUnzygsK-i9NV1-17" edge="1">
          <mxGeometry relative="1" as="geometry">
            <Array as="points">
              <mxPoint x="656" y="657" />
            </Array>
          </mxGeometry>
        </mxCell>
        <mxCell id="Qb3NqtEUnzygsK-i9NV1-12" value="Fulfield" style="rounded=1;whiteSpace=wrap;html=1;" parent="1" vertex="1">
          <mxGeometry x="600" y="435" width="111" height="45" as="geometry" />
        </mxCell>
        <mxCell id="Qb3NqtEUnzygsK-i9NV1-16" style="edgeStyle=orthogonalEdgeStyle;rounded=0;orthogonalLoop=1;jettySize=auto;html=1;exitX=1;exitY=0.5;exitDx=0;exitDy=0;" parent="1" source="Qb3NqtEUnzygsK-i9NV1-13" target="Qb3NqtEUnzygsK-i9NV1-12" edge="1">
          <mxGeometry relative="1" as="geometry" />
        </mxCell>
        <mxCell id="Qb3NqtEUnzygsK-i9NV1-13" value="Pending" style="rounded=1;whiteSpace=wrap;html=1;" parent="1" vertex="1">
          <mxGeometry x="365" y="435" width="111" height="45" as="geometry" />
        </mxCell>
        <mxCell id="Qb3NqtEUnzygsK-i9NV1-14" value="" style="endArrow=classic;html=1;rounded=0;entryX=0.5;entryY=0;entryDx=0;entryDy=0;exitX=0;exitY=1;exitDx=0;exitDy=0;" parent="1" source="Qb3NqtEUnzygsK-i9NV1-9" target="Qb3NqtEUnzygsK-i9NV1-13" edge="1">
          <mxGeometry width="50" height="50" relative="1" as="geometry">
            <mxPoint x="400" y="350" as="sourcePoint" />
            <mxPoint x="450" y="300" as="targetPoint" />
          </mxGeometry>
        </mxCell>
        <mxCell id="Qb3NqtEUnzygsK-i9NV1-15" value="" style="endArrow=classic;html=1;rounded=0;entryX=0.5;entryY=0;entryDx=0;entryDy=0;exitX=1;exitY=1;exitDx=0;exitDy=0;" parent="1" source="Qb3NqtEUnzygsK-i9NV1-9" target="Qb3NqtEUnzygsK-i9NV1-12" edge="1">
          <mxGeometry width="50" height="50" relative="1" as="geometry">
            <mxPoint x="400" y="350" as="sourcePoint" />
            <mxPoint x="450" y="300" as="targetPoint" />
          </mxGeometry>
        </mxCell>
        <mxCell id="Qb3NqtEUnzygsK-i9NV1-20" style="edgeStyle=orthogonalEdgeStyle;rounded=0;orthogonalLoop=1;jettySize=auto;html=1;exitX=0.25;exitY=1;exitDx=0;exitDy=0;entryX=0;entryY=0.5;entryDx=0;entryDy=0;" parent="1" source="Qb3NqtEUnzygsK-i9NV1-10" target="Qb3NqtEUnzygsK-i9NV1-17" edge="1">
          <mxGeometry relative="1" as="geometry">
            <Array as="points">
              <mxPoint x="243" y="653" />
              <mxPoint x="345" y="653" />
            </Array>
          </mxGeometry>
        </mxCell>
        <mxCell id="Qb3NqtEUnzygsK-i9NV1-17" value="" style="ellipse;html=1;shape=endState;fillColor=strokeColor;rotation=5;" parent="1" vertex="1">
          <mxGeometry x="387.5" y="635" width="40" height="40.45" as="geometry" />
        </mxCell>
        <mxCell id="Qb3NqtEUnzygsK-i9NV1-21" value="rejected[checked]" style="text;html=1;align=center;verticalAlign=middle;resizable=0;points=[];autosize=1;strokeColor=none;fillColor=none;rotation=-45;" parent="1" vertex="1">
          <mxGeometry x="240" y="250" width="115" height="30" as="geometry" />
        </mxCell>
        <mxCell id="Qb3NqtEUnzygsK-i9NV1-22" value="accepted[checked]" style="text;html=1;align=center;verticalAlign=middle;resizable=0;points=[];autosize=1;strokeColor=none;fillColor=none;rotation=40;" parent="1" vertex="1">
          <mxGeometry x="456.5" y="250" width="120" height="30" as="geometry" />
        </mxCell>
        <mxCell id="Qb3NqtEUnzygsK-i9NV1-24" value="item are not avaliable" style="text;html=1;align=center;verticalAlign=middle;resizable=0;points=[];autosize=1;strokeColor=none;fillColor=none;rotation=-50;" parent="1" vertex="1">
          <mxGeometry x="370" y="370" width="135" height="30" as="geometry" />
        </mxCell>
        <mxCell id="Qb3NqtEUnzygsK-i9NV1-25" value="items are available" style="text;html=1;align=center;verticalAlign=middle;resizable=0;points=[];autosize=1;strokeColor=none;fillColor=none;" parent="1" vertex="1">
          <mxGeometry x="476" y="430" width="120" height="30" as="geometry" />
        </mxCell>
        <mxCell id="Qb3NqtEUnzygsK-i9NV1-26" value="items are available" style="text;html=1;align=center;verticalAlign=middle;resizable=0;points=[];autosize=1;strokeColor=none;fillColor=none;rotation=55;" parent="1" vertex="1">
          <mxGeometry x="585" y="370" width="120" height="30" as="geometry" />
        </mxCell>
        <mxCell id="kSCMio7vJr0gBMnvvoBE-1" value="Start" style="text;html=1;align=center;verticalAlign=middle;resizable=0;points=[];autosize=1;strokeColor=none;fillColor=none;fontSize=15;fontStyle=1" parent="1" vertex="1">
          <mxGeometry x="421" y="105" width="55" height="35" as="geometry" />
        </mxCell>
        <mxCell id="kSCMio7vJr0gBMnvvoBE-2" value="Stop" style="text;html=1;align=center;verticalAlign=middle;resizable=0;points=[];autosize=1;strokeColor=none;fillColor=none;fontSize=15;fontStyle=1" parent="1" vertex="1">
          <mxGeometry x="427.5" y="660" width="55" height="35" as="geometry" />
        </mxCell>
      </root>
    </mxGraphModel>
  </diagram>
</mxfile>
